<svg width="27" height="25" viewBox="0 0 27 25" fill="none" xmlns="http://www.w3.org/2000/svg">
<path d="M21.7777 22.1739C21.8226 22.1626 21.8439 22.1417 21.8615 22.1208C21.8692 22.1116 21.877 22.1025 21.8849 22.0935C21.9213 22.0519 21.9246 21.9636 21.9237 21.9189C21.9106 21.8131 21.8201 21.7405 21.743 21.7405C21.7393 21.7405 21.7355 21.7406 21.7331 21.7407C21.6552 21.7461 21.5677 21.8495 21.5742 21.9708C21.5835 22.0873 21.6695 22.1739 21.7411 22.1739H21.7777ZM8.15921 22.1676C8.25811 22.1676 8.33852 22.0735 8.33852 21.9579C8.33852 21.8427 8.25811 21.749 8.15921 21.749C8.06036 21.749 7.9799 21.8427 7.9799 21.9579C7.9799 22.0735 8.06036 22.1676 8.15921 22.1676ZM21.9008 24.1684C21.8532 24.1684 21.7895 24.1684 21.7411 24.1684C20.6066 24.1684 19.6643 23.2592 19.5843 22.1059C19.5045 20.9042 20.3993 19.8326 21.5975 19.7509C21.6462 19.7476 21.6948 19.746 21.743 19.746C22.8786 19.746 23.8373 20.6444 23.9148 21.7972C23.9462 22.3985 23.7703 22.9667 23.3871 23.4055C23.0038 23.8605 22.4761 24.1199 21.9008 24.1684ZM8.15921 24.1621C6.95833 24.1621 5.98545 23.1758 5.98545 21.9579C5.98545 20.7408 6.95833 19.7545 8.15921 19.7545C9.36002 19.7545 10.333 20.7408 10.333 21.9579C10.333 23.1758 9.36002 24.1621 8.15921 24.1621ZM21.102 17.315H9.07018C8.63846 17.315 8.25525 17.0225 8.14301 16.6007L4.22814 2.211H1.48C0.953143 2.211 0.521484 1.77313 0.521484 1.23642C0.521484 0.70056 0.953143 0.261719 1.48 0.261719H4.94794C5.37874 0.261719 5.76195 0.554239 5.87413 0.977011L9.78906 15.3658H20.463L24.0099 7.08354H12.1863C11.6586 7.08354 11.2268 6.6447 11.2268 6.10896C11.2268 5.5731 11.6586 5.13425 12.1863 5.13425H25.48C25.7996 5.13425 26.1038 5.29664 26.2788 5.5731C26.4547 5.84857 26.4871 6.18966 26.3587 6.49837L21.9807 16.7299C21.8209 17.0872 21.4852 17.315 21.102 17.315Z" fill="white"/>
</svg>
